<svg width="200" height="41" viewBox="0 0 200 41" fill="none" xmlns="http://www.w3.org/2000/svg">
<path d="M18.5734 4.39057C19.0224 3.00861 20.9776 3.00861 21.4266 4.39058L24.1535 12.7832C24.3543 13.4012 24.9303 13.8197 25.5801 13.8197H34.4046C35.8577 13.8197 36.4619 15.6791 35.2863 16.5332L28.1471 21.7201C27.6214 22.1021 27.4014 22.7791 27.6022 23.3972L30.3291 31.7898C30.7781 33.1717 29.1964 34.3209 28.0209 33.4668L20.8817 28.2799C20.3559 27.8979 19.6441 27.8979 19.1183 28.2799L11.9791 33.4668C10.8036 34.3209 9.22185 33.1717 9.67088 31.7898L12.3978 23.3972C12.5986 22.7791 12.3786 22.1021 11.8529 21.7201L4.71372 16.5332C3.53815 15.6791 4.14231 13.8197 5.59539 13.8197H14.4199C15.0697 13.8197 15.6457 13.4012 15.8465 12.7832L18.5734 4.39057Z" fill="#FFDE30"/>
<path d="M58.5734 5.24165C59.0224 3.85968 60.9776 3.85968 61.4266 5.24165L64.1535 13.6343C64.3543 14.2523 64.9303 14.6707 65.5801 14.6707H74.4046C75.8577 14.6707 76.4619 16.5302 75.2863 17.3843L68.1471 22.5712C67.6214 22.9531 67.4014 23.6302 67.6022 24.2482L70.3291 32.6408C70.7781 34.0228 69.1964 35.172 68.0209 34.3179L60.8817 29.131C60.3559 28.749 59.6441 28.749 59.1183 29.131L51.9791 34.3179C50.8036 35.172 49.2219 34.0228 49.6709 32.6408L52.3978 24.2482C52.5986 23.6302 52.3786 22.9531 51.8529 22.5712L44.7137 17.3843C43.5381 16.5302 44.1423 14.6707 45.5954 14.6707H54.4199C55.0697 14.6707 55.6457 14.2523 55.8465 13.6343L58.5734 5.24165Z" fill="#FFDE30"/>
<path d="M98.5734 5.24165C99.0224 3.85968 100.978 3.85968 101.427 5.24165L104.154 13.6343C104.354 14.2523 104.93 14.6707 105.58 14.6707H114.405C115.858 14.6707 116.462 16.5302 115.286 17.3843L108.147 22.5712C107.621 22.9531 107.401 23.6302 107.602 24.2482L110.329 32.6408C110.778 34.0228 109.196 35.172 108.021 34.3179L100.882 29.131C100.356 28.749 99.6441 28.749 99.1183 29.131L91.9791 34.3179C90.8036 35.172 89.2219 34.0228 89.6709 32.6408L92.3978 24.2482C92.5986 23.6302 92.3786 22.9531 91.8529 22.5712L84.7137 17.3843C83.5381 16.5302 84.1423 14.6707 85.5954 14.6707H94.4199C95.0697 14.6707 95.6457 14.2523 95.8465 13.6343L98.5734 5.24165Z" fill="#424242"/>
<path d="M140.276 5.24165C140.725 3.85968 142.68 3.85968 143.129 5.24165L145.856 13.6343C146.056 14.2523 146.632 14.6707 147.282 14.6707H156.107C157.56 14.6707 158.164 16.5302 156.988 17.3843L149.849 22.5712C149.324 22.9531 149.104 23.6302 149.304 24.2482L152.031 32.6408C152.48 34.0228 150.899 35.172 149.723 34.3179L142.584 29.131C142.058 28.749 141.346 28.749 140.82 29.131L133.681 34.3179C132.506 35.172 130.924 34.0228 131.373 32.6408L134.1 24.2482C134.301 23.6302 134.081 22.9531 133.555 22.5712L126.416 17.3843C125.24 16.5302 125.844 14.6707 127.298 14.6707H136.122C136.772 14.6707 137.348 14.2523 137.549 13.6343L140.276 5.24165Z" fill="#424242"/>
<path d="M178.573 5.24165C179.022 3.85968 180.978 3.85968 181.427 5.24165L184.154 13.6343C184.354 14.2523 184.93 14.6707 185.58 14.6707H194.405C195.858 14.6707 196.462 16.5302 195.286 17.3843L188.147 22.5712C187.621 22.9531 187.401 23.6302 187.602 24.2482L190.329 32.6408C190.778 34.0228 189.196 35.172 188.021 34.3179L180.882 29.131C180.356 28.749 179.644 28.749 179.118 29.131L171.979 34.3179C170.804 35.172 169.222 34.0228 169.671 32.6408L172.398 24.2482C172.599 23.6302 172.379 22.9531 171.853 22.5712L164.714 17.3843C163.538 16.5302 164.142 14.6707 165.595 14.6707H174.42C175.07 14.6707 175.646 14.2523 175.846 13.6343L178.573 5.24165Z" fill="#424242"/>
</svg>
