<svg width="204" height="42" viewBox="0 0 204 42" fill="none" xmlns="http://www.w3.org/2000/svg">
<path d="M18.9734 4.39057C19.4224 3.00861 21.3776 3.00861 21.8266 4.39058L24.6433 13.0596C24.8441 13.6776 25.4201 14.0961 26.0699 14.0961L35.185 14.0961C36.6381 14.0961 37.2423 15.9555 36.0667 16.8096L28.6924 22.1673C28.1667 22.5493 27.9467 23.2263 28.1475 23.8444L30.9642 32.5134C31.4133 33.8953 29.8315 35.0445 28.656 34.1904L21.2817 28.8327C20.7559 28.4507 20.0441 28.4507 19.5183 28.8327L12.144 34.1904C10.9685 35.0445 9.38674 33.8953 9.83577 32.5134L12.6525 23.8444C12.8533 23.2263 12.6333 22.5493 12.1076 22.1673L4.73329 16.8096C3.55772 15.9555 4.16189 14.0961 5.61497 14.0961L14.7301 14.0961C15.3799 14.0961 15.9559 13.6776 16.1567 13.0596L18.9734 4.39057Z" fill="#FFDE30"/>
<path d="M59.7735 5.25862C60.2225 3.87665 62.1776 3.87665 62.6266 5.25862L65.4434 13.9276C65.6442 14.5457 66.2201 14.9641 66.8699 14.9641L75.9851 14.9641C77.4382 14.9641 78.0423 16.8235 76.8668 17.6776L69.4925 23.0354C68.9667 23.4173 68.7467 24.0944 68.9476 24.7124L71.7643 33.3814C72.2133 34.7634 70.6316 35.9126 69.456 35.0585L62.0817 29.7007C61.556 29.3188 60.8441 29.3188 60.3184 29.7007L52.9441 35.0585C51.7685 35.9126 50.1868 34.7634 50.6358 33.3814L53.4525 24.7124C53.6534 24.0944 53.4334 23.4173 52.9076 23.0354L45.5333 17.6776C44.3578 16.8235 44.9619 14.9641 46.415 14.9641L55.5301 14.9641C56.18 14.9641 56.7559 14.5457 56.9567 13.9276L59.7735 5.25862Z" fill="#FFDE30"/>
<path d="M100.574 5.25862C101.023 3.87665 102.978 3.87665 103.427 5.25862L106.243 13.9276C106.444 14.5457 107.02 14.9641 107.67 14.9641L116.785 14.9641C118.238 14.9641 118.842 16.8235 117.667 17.6776L110.293 23.0354C109.767 23.4173 109.547 24.0944 109.748 24.7124L112.564 33.3814C113.013 34.7634 111.432 35.9126 110.256 35.0585L102.882 29.7007C102.356 29.3188 101.644 29.3188 101.118 29.7007L93.7441 35.0585C92.5686 35.9126 90.9868 34.7634 91.4359 33.3814L94.2526 24.7124C94.4534 24.0944 94.2334 23.4173 93.7077 23.0354L86.3334 17.6776C85.1578 16.8235 85.762 14.9641 87.2151 14.9641L96.3302 14.9641C96.98 14.9641 97.556 14.5457 97.7568 13.9276L100.574 5.25862Z" fill="#FFDE30"/>
<path d="M143.11 5.25862C143.559 3.87665 145.514 3.87665 145.963 5.25862L148.78 13.9276C148.98 14.5457 149.556 14.9641 150.206 14.9641L159.321 14.9641C160.774 14.9641 161.379 16.8235 160.203 17.6776L152.829 23.0354C152.303 23.4173 152.083 24.0944 152.284 24.7124L155.1 33.3814C155.549 34.7634 153.968 35.9126 152.792 35.0585L145.418 29.7007C144.892 29.3188 144.18 29.3188 143.655 29.7007L136.28 35.0585C135.105 35.9126 133.523 34.7634 133.972 33.3814L136.789 24.7124C136.99 24.0944 136.77 23.4173 136.244 23.0354L128.87 17.6776C127.694 16.8235 128.298 14.9641 129.751 14.9641L138.866 14.9641C139.516 14.9641 140.092 14.5457 140.293 13.9276L143.11 5.25862Z" fill="#FFDE30"/>
<path d="M182.173 5.25862C182.622 3.87665 184.578 3.87665 185.027 5.25862L187.843 13.9276C188.044 14.5457 188.62 14.9641 189.27 14.9641L198.385 14.9641C199.838 14.9641 200.442 16.8235 199.267 17.6776L191.892 23.0354C191.367 23.4173 191.147 24.0944 191.347 24.7124L194.164 33.3814C194.613 34.7634 193.031 35.9126 191.856 35.0585L184.482 29.7007C183.956 29.3188 183.244 29.3188 182.718 29.7007L175.344 35.0585C174.168 35.9126 172.587 34.7634 173.036 33.3814L175.852 24.7124C176.053 24.0944 175.833 23.4173 175.308 23.0354L167.933 17.6776C166.758 16.8235 167.362 14.9641 168.815 14.9641L177.93 14.9641C178.58 14.9641 179.156 14.5457 179.357 13.9276L182.173 5.25862Z" fill="#FFDE30"/>
</svg>
